<svg width="233" height="60" viewBox="0 0 233 60" fill="none" xmlns="http://www.w3.org/2000/svg">
<path d="M4.32464 47.5V11.7868H25.7386V15.6232H8.64928V27.6904H24.1343V31.5267H8.64928V47.5H4.32464ZM33.1454 47.5V11.7868H37.47V43.6636H54.0711V47.5H33.1454ZM103.268 47.5L93.5029 11.7868H97.8973L105.361 40.8735H105.71L113.313 11.7868H118.195L125.798 40.8735H126.147L133.61 11.7868H138.005L128.24 47.5H123.775L115.893 19.0411H115.614L107.732 47.5H103.268ZM143.393 47.5V11.7868H164.947V15.6232H147.718V27.6904H163.831V31.5267H147.718V43.6636H165.226V47.5H143.393ZM172.741 47.5V11.7868H184.809C187.599 11.7868 189.889 12.2635 191.679 13.2168C193.47 14.1584 194.795 15.4546 195.655 17.1055C196.515 18.7563 196.945 20.6338 196.945 22.7379C196.945 24.8421 196.515 26.708 195.655 28.3356C194.795 29.9631 193.475 31.2419 191.697 32.1719C189.918 33.0903 187.645 33.5495 184.878 33.5495H175.113V29.6434H184.739C186.645 29.6434 188.18 29.3644 189.343 28.8064C190.517 28.2484 191.365 27.4579 191.888 26.4348C192.423 25.4002 192.691 24.1679 192.691 22.7379C192.691 21.308 192.423 20.0583 191.888 18.9888C191.354 17.9192 190.499 17.0938 189.325 16.5126C188.151 15.9197 186.599 15.6232 184.669 15.6232H177.066V47.5H172.741ZM189.552 31.457L198.341 47.5H193.318L184.669 31.457H189.552ZM223.682 20.7151C223.473 18.9481 222.625 17.5763 221.136 16.5997C219.648 15.6232 217.823 15.135 215.661 15.135C214.08 15.135 212.696 15.3907 211.511 15.9022C210.336 16.4137 209.418 17.1171 208.755 18.0122C208.104 18.9074 207.779 19.9246 207.779 21.0639C207.779 22.0172 208.006 22.8368 208.459 23.5227C208.924 24.1969 209.517 24.7608 210.238 25.2142C210.958 25.6559 211.714 26.0221 212.505 26.3127C213.295 26.5918 214.022 26.8185 214.684 26.9928L218.311 27.9694C219.242 28.2135 220.276 28.5506 221.415 28.9808C222.566 29.4109 223.665 29.998 224.711 30.742C225.769 31.4744 226.641 32.4161 227.327 33.567C228.013 34.7179 228.356 36.1304 228.356 37.8044C228.356 39.7342 227.85 41.4781 226.839 43.0359C225.839 44.5937 224.374 45.8318 222.444 46.7502C220.526 47.6686 218.195 48.1278 215.452 48.1278C212.894 48.1278 210.679 47.7151 208.808 46.8897C206.948 46.0643 205.483 44.9134 204.413 43.4369C203.355 41.9605 202.757 40.2458 202.617 38.2927H207.081C207.198 39.6412 207.651 40.7573 208.442 41.6408C209.244 42.5127 210.255 43.1637 211.476 43.5939C212.708 44.0124 214.033 44.2216 215.452 44.2216C217.102 44.2216 218.585 43.9543 219.898 43.4195C221.212 42.8731 222.253 42.1175 223.02 41.1525C223.787 40.176 224.171 39.0367 224.171 37.7347C224.171 36.5489 223.839 35.584 223.177 34.84C222.514 34.0959 221.642 33.4914 220.561 33.0264C219.48 32.5614 218.311 32.1545 217.056 31.8057L212.662 30.5502C209.871 29.748 207.663 28.6029 206.035 27.1149C204.408 25.6269 203.594 23.6796 203.594 21.2731C203.594 19.2736 204.134 17.5298 205.216 16.0417C206.308 14.5421 207.773 13.3795 209.61 12.5541C211.458 11.7171 213.522 11.2986 215.8 11.2986C218.102 11.2986 220.148 11.7113 221.939 12.5367C223.729 13.3505 225.147 14.4665 226.194 15.8848C227.251 17.3031 227.809 18.9132 227.868 20.7151H223.682Z" fill="#1A1A1A"/>
<path d="M89.5096 29.6434C89.5096 33.41 88.8295 36.6651 87.4693 39.4087C86.1092 42.1523 84.2433 44.2681 81.8717 45.7562C79.5001 47.2442 76.7914 47.9883 73.7456 47.9883C70.6997 47.9883 67.991 47.2442 65.6194 45.7562C63.2479 44.2681 61.382 42.1523 60.0218 39.4087C58.6617 36.6651 57.9816 33.41 57.9816 29.6434C57.9816 25.8768 58.6617 22.6217 60.0218 19.8781C61.382 17.1345 63.2479 15.0187 65.6194 13.5306C67.991 12.0426 70.6997 11.2986 73.7456 11.2986C76.7914 11.2986 79.5001 12.0426 81.8717 13.5306C84.2433 15.0187 86.1092 17.1345 87.4693 19.8781C88.8295 22.6217 89.5096 25.8768 89.5096 29.6434ZM85.3245 29.6434C85.3245 26.5511 84.8071 23.9412 83.7725 21.8137C82.7494 19.6863 81.3602 18.0762 79.6048 16.9834C77.861 15.8906 75.9079 15.3442 73.7456 15.3442C71.5833 15.3442 69.6244 15.8906 67.8689 16.9834C66.1251 18.0762 64.7359 19.6863 63.7013 21.8137C62.6782 23.9412 62.1667 26.5511 62.1667 29.6434C62.1667 32.7358 62.6782 35.3457 63.7013 37.4731C64.7359 39.6006 66.1251 41.2107 67.8689 42.3035C69.6244 43.3962 71.5833 43.9426 73.7456 43.9426C75.9079 43.9426 77.861 43.3962 79.6048 42.3035C81.3602 41.2107 82.7494 39.6006 83.7725 37.4731C84.8071 35.3457 85.3245 32.7358 85.3245 29.6434Z" fill="#FCFCFC"/>
<path d="M74.7186 33.7437C76.8994 33.7437 78.6673 31.9758 78.6673 29.7951C78.6673 27.6143 76.8994 25.8464 74.7186 25.8464C72.5379 25.8464 70.77 27.6143 70.77 29.7951C70.77 31.9758 72.5379 33.7437 74.7186 33.7437Z" fill="#1A1A1A"/>
<path d="M92.8109 33.7364C93.5813 32.9783 94.1137 32.0117 94.3428 30.9554C94.5718 29.899 94.4875 28.7988 94.1002 27.7897C93.7129 26.7805 93.0394 25.9064 92.1625 25.2745C91.2855 24.6427 90.2432 24.2805 89.1633 24.2325C89.0819 24.229 89.0032 24.2023 88.9364 24.1555C88.8697 24.1087 88.8177 24.0438 88.7866 23.9685C88.7557 23.8929 88.7471 23.8101 88.7616 23.7298C88.7762 23.6496 88.8134 23.5751 88.8688 23.5152C89.5918 22.7159 90.0678 21.7244 90.2393 20.6604C90.4109 19.5964 90.2706 18.5055 89.8355 17.5195C89.4004 16.5335 88.6891 15.6946 87.7875 15.1042C86.8859 14.5137 85.8326 14.197 84.7549 14.1924H84.7343C83.3513 14.1921 82.0185 14.7108 80.9996 15.6459C80.9396 15.7015 80.865 15.7388 80.7845 15.7534C80.7041 15.768 80.6211 15.7592 80.5455 15.7282C80.4702 15.697 80.4053 15.645 80.3584 15.5782C80.3115 15.5115 80.2845 15.4329 80.2806 15.3514C80.2177 13.9184 79.6043 12.565 78.568 11.5732C77.5318 10.5814 76.1528 10.0278 74.7184 10.0278C73.284 10.0278 71.905 10.5814 70.8687 11.5732C69.8325 12.565 69.219 13.9184 69.1562 15.3514C69.1526 15.4329 69.1259 15.5116 69.0791 15.5783C69.0323 15.6451 68.9674 15.6971 68.8921 15.7282C68.8165 15.7592 68.7335 15.768 68.653 15.7534C68.5726 15.7388 68.498 15.7015 68.438 15.6459C67.4185 14.7093 66.0844 14.1899 64.7 14.1907H64.6827C63.6061 14.1982 62.5547 14.5167 61.6549 15.1077C60.755 15.6988 60.0451 16.5372 59.6106 17.5222C59.176 18.5072 59.0354 19.5968 59.2055 20.6599C59.3757 21.7229 59.8493 22.7142 60.5696 23.5144C60.625 23.5743 60.6622 23.6487 60.6768 23.729C60.6913 23.8093 60.6827 23.8921 60.6518 23.9677C60.6207 24.043 60.5687 24.1079 60.502 24.1547C60.4352 24.2014 60.3565 24.2282 60.2751 24.2317C58.8509 24.3072 57.5099 24.9262 56.5285 25.961C55.5471 26.9959 55 28.3677 55 29.7939C55 31.2201 55.5471 32.592 56.5285 33.6268C57.5099 34.6617 58.8509 35.2806 60.2751 35.3561C60.3566 35.3601 60.4353 35.3872 60.502 35.4343C60.5688 35.4813 60.6207 35.5464 60.6518 35.6218C60.6828 35.6975 60.6915 35.7804 60.6769 35.8609C60.6623 35.9413 60.6251 36.0159 60.5696 36.0759C59.8443 36.8728 59.3664 37.8635 59.1941 38.9271C59.0218 39.9908 59.1625 41.0817 59.5991 42.0668C60.0357 43.0519 60.7493 43.8888 61.6531 44.4756C62.5569 45.0624 63.6118 45.3737 64.6893 45.3716H64.7099C66.0867 45.3754 67.4157 44.8667 68.438 43.9444C68.4979 43.8889 68.5724 43.8517 68.6527 43.8372C68.733 43.8226 68.8157 43.8312 68.8913 43.8621C68.9666 43.8932 69.0315 43.9452 69.0783 44.012C69.1251 44.0787 69.1518 44.1574 69.1553 44.2389C69.2309 45.6631 69.8498 47.004 70.8847 47.9855C71.9195 48.9669 73.2914 49.5139 74.7176 49.5139C76.1438 49.5139 77.5156 48.9669 78.5505 47.9855C79.5853 47.004 80.2042 45.6631 80.2798 44.2389C80.2837 44.1574 80.3106 44.0788 80.3575 44.0121C80.4044 43.9454 80.4693 43.8934 80.5446 43.8621C80.6202 43.8312 80.703 43.8226 80.7833 43.8372C80.8636 43.8517 80.938 43.8889 80.9979 43.9444C82.0187 44.8682 83.3468 45.379 84.7236 45.3774H84.7442C85.8227 45.3816 86.879 45.0716 87.7842 44.4853C88.6894 43.8989 89.4041 43.0615 89.8411 42.0755C90.2781 41.0895 90.4184 39.9976 90.2448 38.9331C90.0713 37.8687 89.5914 36.8778 88.8639 36.0817C88.8084 36.0217 88.7712 35.9471 88.7566 35.8666C88.742 35.7862 88.7507 35.7033 88.7816 35.6276C88.8129 35.5523 88.8649 35.4874 88.9316 35.4405C88.9983 35.3936 89.077 35.3666 89.1584 35.3627C90.5359 35.2944 91.8384 34.7145 92.8109 33.7364ZM74.7188 36.3762C73.4172 36.3762 72.1448 35.9902 71.0626 35.2671C69.9803 34.544 69.1368 33.5161 68.6387 32.3136C68.1406 31.1111 68.0103 29.7879 68.2642 28.5113C68.5181 27.2347 69.1449 26.062 70.0653 25.1417C70.9857 24.2213 72.1583 23.5945 73.4349 23.3406C74.7115 23.0866 76.0347 23.217 77.2372 23.7151C78.4398 24.2132 79.4676 25.0567 80.1907 26.1389C80.9139 27.2212 81.2998 28.4936 81.2998 29.7952C81.2979 31.54 80.6039 33.2127 79.3701 34.4465C78.1364 35.6802 76.4636 36.3742 74.7188 36.3762Z" fill="#FF4693"/>
<path d="M92.8109 33.7364C93.5813 32.9783 94.1137 32.0117 94.3428 30.9554C94.5718 29.899 94.4875 28.7988 94.1002 27.7897C93.7129 26.7805 93.0394 25.9064 92.1625 25.2745C91.2855 24.6427 90.2432 24.2805 89.1633 24.2325C89.0819 24.229 89.0032 24.2023 88.9364 24.1555C88.8697 24.1087 88.8177 24.0438 88.7866 23.9685C88.7557 23.8929 88.7471 23.8101 88.7616 23.7298C88.7762 23.6496 88.8134 23.5751 88.8688 23.5152C89.5918 22.7159 90.0678 21.7244 90.2393 20.6604C90.4109 19.5964 90.2706 18.5055 89.8355 17.5195C89.4004 16.5335 88.6891 15.6946 87.7875 15.1042C86.8859 14.5137 85.8326 14.197 84.7549 14.1924H84.7343C83.3513 14.1921 82.0185 14.7108 80.9996 15.6459C80.9396 15.7015 80.865 15.7388 80.7845 15.7534C80.7041 15.768 80.6211 15.7592 80.5455 15.7282C80.4702 15.697 80.4053 15.645 80.3584 15.5782C80.3115 15.5115 80.2845 15.4329 80.2806 15.3514C80.2177 13.9184 79.6043 12.565 78.568 11.5732C77.5318 10.5814 76.1528 10.0278 74.7184 10.0278C73.284 10.0278 71.905 10.5814 70.8687 11.5732C69.8325 12.565 69.219 13.9184 69.1562 15.3514C69.1526 15.4329 69.1259 15.5116 69.0791 15.5783C69.0323 15.6451 68.9674 15.6971 68.8921 15.7282C68.8165 15.7592 68.7335 15.768 68.653 15.7534C68.5726 15.7388 68.498 15.7015 68.438 15.6459C67.4185 14.7093 66.0844 14.1899 64.7 14.1907H64.6827C63.6061 14.1982 62.5547 14.5167 61.6549 15.1077C60.755 15.6988 60.0451 16.5372 59.6106 17.5222C59.176 18.5072 59.0354 19.5968 59.2055 20.6599C59.3757 21.7229 59.8493 22.7142 60.5696 23.5144C60.625 23.5743 60.6622 23.6487 60.6768 23.729C60.6913 23.8093 60.6827 23.8921 60.6518 23.9677C60.6207 24.043 60.5687 24.1079 60.502 24.1547C60.4352 24.2014 60.3565 24.2282 60.2751 24.2317C58.8509 24.3072 57.5099 24.9262 56.5285 25.961C55.5471 26.9959 55 28.3677 55 29.7939C55 31.2201 55.5471 32.592 56.5285 33.6268C57.5099 34.6617 58.8509 35.2806 60.2751 35.3561C60.3566 35.3601 60.4353 35.3872 60.502 35.4343C60.5688 35.4813 60.6207 35.5464 60.6518 35.6218C60.6828 35.6975 60.6915 35.7804 60.6769 35.8609C60.6623 35.9413 60.6251 36.0159 60.5696 36.0759C59.8443 36.8728 59.3664 37.8635 59.1941 38.9271C59.0218 39.9908 59.1625 41.0817 59.5991 42.0668C60.0357 43.0519 60.7493 43.8888 61.6531 44.4756C62.5569 45.0624 63.6118 45.3737 64.6893 45.3716H64.7099C66.0867 45.3754 67.4157 44.8667 68.438 43.9444C68.4979 43.8889 68.5724 43.8517 68.6527 43.8372C68.733 43.8226 68.8157 43.8312 68.8913 43.8621C68.9666 43.8932 69.0315 43.9452 69.0783 44.012C69.1251 44.0787 69.1518 44.1574 69.1553 44.2389C69.2309 45.6631 69.8498 47.004 70.8847 47.9855C71.9195 48.9669 73.2914 49.5139 74.7176 49.5139C76.1438 49.5139 77.5156 48.9669 78.5505 47.9855C79.5853 47.004 80.2042 45.6631 80.2798 44.2389C80.2837 44.1574 80.3106 44.0788 80.3575 44.0121C80.4044 43.9454 80.4693 43.8934 80.5446 43.8621C80.6202 43.8312 80.703 43.8226 80.7833 43.8372C80.8636 43.8517 80.938 43.8889 80.9979 43.9444C82.0187 44.8682 83.3468 45.379 84.7236 45.3774H84.7442C85.8227 45.3816 86.879 45.0716 87.7842 44.4853C88.6894 43.8989 89.4041 43.0615 89.8411 42.0755C90.2781 41.0895 90.4184 39.9976 90.2448 38.9331C90.0713 37.8687 89.5914 36.8778 88.8639 36.0817C88.8084 36.0217 88.7712 35.9471 88.7566 35.8666C88.742 35.7862 88.7507 35.7033 88.7816 35.6276C88.8129 35.5523 88.8649 35.4874 88.9316 35.4405C88.9983 35.3936 89.077 35.3666 89.1584 35.3627C90.5359 35.2944 91.8384 34.7145 92.8109 33.7364ZM74.7188 36.3762C73.4172 36.3762 72.1448 35.9902 71.0626 35.2671C69.9803 34.544 69.1368 33.5161 68.6387 32.3136C68.1406 31.1111 68.0103 29.7879 68.2642 28.5113C68.5181 27.2347 69.1449 26.062 70.0653 25.1417C70.9857 24.2213 72.1583 23.5945 73.4349 23.3406C74.7115 23.0866 76.0347 23.217 77.2372 23.7151C78.4398 24.2132 79.4676 25.0567 80.1907 26.1389C80.9139 27.2212 81.2998 28.4936 81.2998 29.7952C81.2979 31.54 80.6039 33.2127 79.3701 34.4465C78.1364 35.6802 76.4636 36.3742 74.7188 36.3762Z" fill="black" fill-opacity="0.2"/>
</svg>
