<svg width="108" height="108" viewBox="0 0 108 108" fill="none" xmlns="http://www.w3.org/2000/svg">
<g clip-path="url(#clip0_861_172)">
<path d="M108 54C108 83.8234 83.8234 108 54 108C24.1766 108 0 83.8234 0 54C0 24.1766 24.1766 0 54 0C83.8234 0 108 24.1766 108 54Z" fill="#FCFCFC"/>
<path d="M60 51C58.3431 51 57 52.3431 57 54C57 55.6569 58.3431 57 60 57V51ZM63.1213 56.1213C64.2929 54.9497 64.2929 53.0503 63.1213 51.8787L44.0294 32.7868C42.8579 31.6152 40.9584 31.6152 39.7868 32.7868C38.6152 33.9584 38.6152 35.8579 39.7868 37.0294L56.7574 54L39.7868 70.9706C38.6152 72.1421 38.6152 74.0416 39.7868 75.2132C40.9584 76.3848 42.8579 76.3848 44.0294 75.2132L63.1213 56.1213ZM60 57H61V51H60V57Z" fill="#FF4693"/>
<path d="M60 51C58.3431 51 57 52.3431 57 54C57 55.6569 58.3431 57 60 57V51ZM63.1213 56.1213C64.2929 54.9497 64.2929 53.0503 63.1213 51.8787L44.0294 32.7868C42.8579 31.6152 40.9584 31.6152 39.7868 32.7868C38.6152 33.9584 38.6152 35.8579 39.7868 37.0294L56.7574 54L39.7868 70.9706C38.6152 72.1421 38.6152 74.0416 39.7868 75.2132C40.9584 76.3848 42.8579 76.3848 44.0294 75.2132L63.1213 56.1213ZM60 57H61V51H60V57Z" fill="black" fill-opacity="0.2"/>
</g>
<defs>
<clipPath id="clip0_861_172">
<rect width="108" height="108" fill="white"/>
</clipPath>
</defs>
</svg>
